<?xml version="1.0" standalone="no"?>
<!DOCTYPE svg PUBLIC "-//W3C//DTD SVG 20010904//EN"
 "http://www.w3.org/TR/2001/REC-SVG-20010904/DTD/svg10.dtd">
<svg version="1.0" xmlns="http://www.w3.org/2000/svg"
 width="542.000000pt" height="227.000000pt" viewBox="0 0 542.000000 227.000000"
 preserveAspectRatio="xMidYMid meet">

<g transform="translate(0.000000,227.000000) scale(0.100000,-0.100000)"
fill="#000000" stroke="none">
<path d="M4000 285 l0 -265 70 0 69 0 3 98 3 97 65 0 65 0 5 -95 5 -95 73 -3
72 -3 0 266 0 265 -75 0 -74 0 -3 -92 -3 -93 -65 0 -65 0 -3 93 -3 92 -69 0
-70 0 0 -265z"/>
<path d="M4500 375 c0 -209 9 -261 53 -302 101 -95 294 -78 354 32 21 38 22
55 23 240 l2 200 -71 3 -71 3 0 -178 c0 -207 -5 -223 -70 -223 -65 0 -70 16
-70 222 l0 178 -75 0 -75 0 0 -175z"/>
<path d="M5010 284 l0 -266 148 4 c164 4 197 14 233 71 30 47 23 137 -14 175
l-27 28 23 22 c18 19 22 34 22 87 0 57 -3 67 -29 94 -37 39 -95 51 -241 51
l-115 0 0 -266z m237 120 c10 -27 -11 -49 -51 -52 -35 -3 -36 -2 -36 32 0 35
1 36 40 36 28 0 43 -5 47 -16z m-3 -184 c53 -20 24 -72 -42 -74 -37 -1 -37 -1
-40 42 -3 41 -2 42 27 42 16 0 41 -4 55 -10z"/>
</g>
</svg>
