<?xml version="1.0" standalone="no"?>
<!DOCTYPE svg PUBLIC "-//W3C//DTD SVG 20010904//EN"
 "http://www.w3.org/TR/2001/REC-SVG-20010904/DTD/svg10.dtd">
<svg version="1.0" xmlns="http://www.w3.org/2000/svg"
 width="734.000000pt" height="302.000000pt" viewBox="0 0 734.000000 302.000000"
 preserveAspectRatio="xMidYMid meet">

<g transform="translate(0.000000,302.000000) scale(0.100000,-0.100000)"
fill="#000000" stroke="none">
<path d="M4747 3009 c-129 -31 -227 -151 -227 -278 0 -156 131 -285 290 -284
113 0 199 53 249 155 75 150 10 328 -144 393 -43 18 -124 25 -168 14z"/>
<path d="M3837 2794 c-38 -8 -93 -26 -122 -39 -44 -19 -60 -22 -92 -14 -21 5
-81 9 -134 9 -311 1 -573 -188 -675 -485 -39 -114 -45 -268 -15 -386 54 -215
189 -381 386 -475 100 -47 184 -67 295 -67 111 0 185 14 280 53 51 21 71 25
79 17 8 -8 57 -12 144 -11 113 0 143 4 209 26 254 84 439 290 488 545 20 101
8 261 -25 362 -113 335 -472 539 -818 465z m360 -676 c-3 -7 -5 -2 -5 12 0 14
2 19 5 13 2 -7 2 -19 0 -25z"/>
<path d="M2465 1871 c-141 -37 -237 -171 -221 -308 18 -150 132 -252 281 -253
159 0 284 121 285 274 0 78 -15 124 -59 182 -61 81 -193 130 -286 105z"/>
<path d="M227 746 c-96 -36 -147 -106 -147 -206 0 -119 55 -177 218 -231 104
-34 127 -50 112 -80 -30 -56 -169 -18 -192 53 -3 7 -38 -8 -90 -38 l-86 -50
15 -29 c25 -49 72 -92 127 -116 42 -19 69 -23 151 -24 90 0 106 3 158 28 73
37 109 86 115 162 11 137 -39 197 -208 249 -91 29 -110 38 -121 58 -8 15 -7
24 7 39 30 34 89 21 130 -29 l20 -25 77 44 c42 24 77 49 77 55 1 28 -65 95
-118 121 -68 33 -182 42 -245 19z"/>
<path d="M630 650 l0 -100 80 0 80 0 0 -255 0 -255 100 0 100 0 0 255 0 255
85 0 85 0 0 100 0 100 -265 0 -265 0 0 -100z"/>
<path d="M1220 488 c1 -282 5 -308 54 -372 14 -19 52 -47 83 -63 52 -25 68
-28 153 -27 108 1 148 14 210 70 69 63 75 92 75 389 l0 260 -97 3 -98 3 0
-233 c0 -128 -3 -243 -6 -256 -14 -49 -101 -68 -148 -31 l-26 20 0 250 0 249
-100 0 -100 0 0 -262z"/>
<path d="M1898 744 c-5 -4 -8 -164 -8 -356 l0 -348 185 0 c161 0 191 3 239 21
73 27 148 96 183 167 25 51 28 67 28 162 0 87 -4 113 -22 152 -33 71 -103 141
-176 173 -59 27 -71 29 -242 33 -99 2 -183 1 -187 -4z m367 -214 c48 -29 68
-79 63 -154 -6 -103 -54 -146 -162 -146 l-66 0 0 160 0 160 66 0 c49 0 75 -5
99 -20z"/>
<path d="M2503 736 c3 -8 58 -110 121 -226 l116 -211 0 -129 0 -130 95 0 95 0
0 130 0 129 115 209 c63 115 117 216 121 226 5 14 -6 16 -101 16 l-106 0 -60
-126 c-33 -70 -64 -123 -68 -118 -5 5 -30 56 -57 114 -26 58 -52 111 -57 118
-7 8 -42 12 -114 12 -87 0 -104 -2 -100 -14z"/>
<path d="M3237 743 c-4 -3 -7 -163 -7 -355 l0 -348 220 0 220 0 0 95 0 95
-120 0 -120 0 0 260 0 260 -93 0 c-52 0 -97 -3 -100 -7z"/>
<path d="M3740 395 l0 -355 95 0 95 0 0 355 0 355 -95 0 -95 0 0 -355z"/>
<path d="M4040 395 l0 -355 100 0 100 0 2 163 3 162 110 -160 110 -160 83 -3
82 -3 0 356 0 355 -100 0 -100 0 -2 -165 -3 -165 -113 165 -113 165 -80 0 -79
0 0 -355z"/>
<path d="M4740 395 l0 -355 100 0 99 0 3 150 3 149 85 -147 85 -147 108 -3
c59 -1 107 0 107 4 0 4 -48 85 -106 181 l-105 174 92 152 c51 84 99 162 107
175 l14 22 -110 0 -110 0 -84 -144 -83 -145 -3 145 -3 144 -99 0 -100 0 0
-355z"/>
<path d="M5390 395 l0 -355 100 0 100 0 0 130 0 130 90 0 90 0 0 -130 0 -130
100 0 100 0 0 355 0 355 -100 0 -100 0 0 -130 0 -130 -90 0 -90 0 0 130 0 130
-100 0 -100 0 0 -355z"/>
<path d="M6070 478 c0 -307 4 -324 74 -386 61 -54 99 -66 211 -66 90 0 105 2
151 26 60 32 106 83 123 137 7 25 11 133 11 300 l0 262 -97 -3 -98 -3 -3 -246
c-3 -277 -2 -276 -79 -286 -32 -4 -45 0 -69 20 l-29 25 -3 246 -3 246 -94 0
-95 0 0 -272z"/>
<path d="M6740 396 l0 -356 186 0 c119 0 202 4 228 12 132 40 180 230 79 318
l-34 31 25 30 c56 66 55 182 -1 243 -53 58 -99 69 -300 74 l-183 4 0 -356z
m317 158 c30 -42 4 -75 -65 -82 l-52 -5 0 50 c0 27 3 53 8 57 13 14 95 -1 109
-20z m17 -260 c9 -8 16 -24 16 -34 0 -35 -28 -50 -91 -50 l-59 0 0 50 0 50 59
0 c41 0 65 -5 75 -16z"/>
</g>
</svg>
